<?xml version="1.0" encoding="utf-8"?>
<!-- Generator: Adobe Illustrator 27.2.0, SVG Export Plug-In . SVG Version: 6.00 Build 0)  -->
<svg version="1.1" id="Layer_1" xmlns="http://www.w3.org/2000/svg" xmlns:xlink="http://www.w3.org/1999/xlink" x="0px" y="0px"
	 viewBox="0 0 600.1 151.6" style="enable-background:new 0 0 600.1 151.6;" xml:space="preserve">
<style type="text/css">
	.st0{fill:#FD4B2D;}
</style>
<path class="st0" d="M284.7,50.4h20.8v82.8h-20.8v-8.8c-3.5,3.5-7.7,6.3-12.2,8.3c-4.2,1.7-8.7,2.6-13.3,2.6
	c-10.7,0-20-4.2-27.8-12.4c-7.8-8.3-11.7-18.6-11.7-30.9c0-12.8,3.8-23.3,11.3-31.5s16.7-12.3,27.5-12.3c4.8,0,9.6,0.9,14,2.8
	c4.5,2,8.7,4.9,12.1,8.5L284.7,50.4z M262.9,67.4c-6.1-0.1-11.9,2.3-16,6.8c-4.2,4.5-6.4,10.4-6.4,17.5c0,7.1,2.2,13,6.5,17.7
	c4.1,4.5,9.9,7,16,6.9c6.1,0.2,12.1-2.3,16.2-6.8c4.3-4.5,6.5-10.5,6.5-17.9c0-7.2-2.1-13-6.5-17.5C275,69.7,269,67.3,262.9,67.4z"
	/>
<path class="st0" d="M335.8,50.4h21v39.9c0,7.8,0.5,13.2,1.6,16.2c0.9,2.8,2.7,5.3,5.2,7c2.6,1.7,5.6,2.6,8.7,2.5
	c3.1,0.1,6.2-0.8,8.8-2.5c2.5-1.8,4.4-4.3,5.4-7.3c0.9-2.4,1.3-7.5,1.3-15.3V50.4h20.8v35.1c0,14.5-1.1,24.4-3.4,29.7
	c-2.5,6.1-6.8,11.4-12.3,15c-5.4,3.5-12.3,5.2-20.7,5.2c-9.1,0-16.4-2-22-6.1c-5.7-4.2-9.9-10.2-11.8-17c-1.6-5-2.4-14.2-2.4-27.4
	L335.8,50.4z"/>
<path class="st0" d="M441.3,19.9h20.8v30.5h12.3v17.9h-12.3v65h-20.8v-65h-10.7V50.4h10.7V19.9z"/>
<path class="st0" d="M495,18.4h20.6v40.3c3.7-3.2,7.8-5.9,12.3-7.9c3.9-1.7,8.2-2.6,12.5-2.6c7.8-0.2,15.3,2.9,20.8,8.5
	c4.8,4.9,7.2,12.2,7.2,21.7v54.7h-20.5V96.9c0-9.6-0.5-16.1-1.4-19.5c-0.7-3-2.3-5.7-4.7-7.6c-2.4-1.7-5.3-2.6-8.2-2.5
	c-4-0.1-7.9,1.4-10.8,4.2c-3.2,3.1-5.4,7.1-6.3,11.4c-0.6,2.5-0.9,8.1-0.9,17v33.3H495V18.4z"/>
<g id="XMLID_96_">
	<path id="XMLID_311_" class="st0" d="M197.1,101.8c-1-0.6-2.4-0.3-3,0.7c-0.1,0.1-5.1,8-14.3,9.1c-4.7,0.5-9.7-0.8-14.9-4
		c0.5,0,1,0,1.5,0c3.1,0,6.5-0.6,10.4-1.8c1.2-0.4,1.8-1.6,1.4-2.8c-0.4-1.2-1.6-1.8-2.8-1.4c-16.3,5.4-23.8-4.1-31.7-14.1
		c-2.9-3.7-5.9-7.5-9.4-10.4c28.6,3.9,29.6,16.6,29.6,16.7c0,1.2,1,2.2,2.2,2.2c0,0,0,0,0,0c1.2,0,2.2-1,2.2-2.2
		c0-0.4-0.2-4.2-4-8.6c2,0.2,3.8,0.3,5.7,0.3c9.7,0,17.4-2.6,21.7-5.9c2.5-2,3.8-4.2,3.8-6.5c0-1.2-1-2.2-2.2-2.2s-2.2,1-2.2,2.2
		c0,0.9-0.8,2-2.2,3.1c-5.2,4.1-17.3,6.9-31.8,3.4c-1.6-0.9-3.3-1.7-5.4-2.5V51.1l6.6,4.5c0.7,0.5,1.5,0.5,2.3,0.1
		c0.7-0.4,1.2-1.1,1.2-1.9V43.2c0-0.7-0.4-1.4-1-1.8l-43.4-29.4c0,0,0,0,0,0c-0.1-0.1-0.2-0.1-0.3-0.1c0,0-0.1-0.1-0.1-0.1
		c-0.1,0-0.1,0-0.2-0.1c-0.1,0-0.1,0-0.2-0.1c-0.1,0-0.1,0-0.2,0c-0.1,0-0.2,0-0.3,0c-0.1,0-0.1,0-0.2,0c-0.1,0-0.1,0-0.2,0
		c-0.1,0-0.1,0-0.2,0.1c-0.1,0-0.2,0-0.2,0.1c0,0-0.1,0-0.1,0.1c-0.1,0-0.2,0.1-0.3,0.1c0,0,0,0,0,0L71.5,41.3c-0.6,0.4-0.9,1-1,1.7
		l-0.6,10.6c0,0.8,0.4,1.6,1.1,2c0.7,0.4,1.6,0.4,2.3-0.1l6.6-4.5v25.7c-2.1,0.8-3.9,1.7-5.4,2.6C60.1,82.8,48,80,42.8,75.9
		c-1.4-1.1-2.2-2.2-2.2-3.1c0-1.2-1-2.2-2.2-2.2c-1.2,0-2.2,1-2.2,2.2c0,2.3,1.3,4.5,3.8,6.5c4.3,3.4,12,5.9,21.7,5.9
		c1.8,0,3.7-0.1,5.6-0.3c-3.8,4.4-4,8.3-4,8.6c0,1.2,0.9,2.2,2.2,2.2c0,0,0,0,0,0c1.2,0,2.2-1,2.2-2.2c0-0.2,1.1-12.8,29.6-16.7
		c-3.5,3-6.4,6.7-9.3,10.4c-7.9,10.1-15.4,19.6-31.7,14.1c-1.1-0.4-2.4,0.2-2.8,1.4c-0.4,1.2,0.2,2.4,1.4,2.8
		c3.8,1.3,7.3,1.8,10.4,1.8c0.5,0,1,0,1.5,0c-5.2,3.2-10.2,4.5-14.9,4c-9.2-1-14.3-9-14.4-9.1c-0.6-1-2-1.3-3-0.7
		c-1,0.6-1.3,2-0.7,3c0.3,0.4,6.3,9.8,17.5,11.1c0.8,0.1,1.7,0.1,2.5,0.1c8.2,0,16.8-4.4,25.6-13.2c4.7-3.4,8.5-8.2,12-12.7
		c5.2-6.6,10.2-12.9,17.3-14.1c1.5-0.1,3.1-0.1,4.8-0.1V84c0,23.5-27.2,27.3-28.3,27.4c-0.5,0-12,1.3-26.3,15.6
		c-0.9,0.9-0.9,2.2,0,3.1c0.4,0.4,1,0.6,1.6,0.6c0.6,0,1.1-0.2,1.6-0.6c13.1-13.1,23.5-14.3,23.7-14.3c0.2,0,14.5-2,23.9-11.4
		c-6.1,15-17.5,26.1-24.5,27c-1.2,0.2-2.1,1.3-1.9,2.5c0.1,1.1,1.1,1.9,2.2,1.9c0.1,0,0.2,0,0.3,0c10.3-1.3,24.4-16.6,30-35.4
		c5.6,18.8,19.7,34.1,30,35.4c0.1,0,0.2,0,0.3,0c1.1,0,2-0.8,2.2-1.9c0.2-1.2-0.7-2.3-1.9-2.5c-7-0.9-18.4-12-24.5-27
		c9.5,9.4,23.7,11.4,24,11.4c0.1,0,10.4,1.1,23.6,14.3c0.4,0.4,1,0.6,1.6,0.6c0.6,0,1.1-0.2,1.6-0.6c0.9-0.9,0.9-2.2,0-3.1
		c-14.3-14.3-25.8-15.6-26.2-15.6c-0.3,0-28.3-3.9-28.3-27.4v-8.1c1.7,0,3.3,0.1,4.8,0.1c7.1,1.2,12.1,7.5,17.3,14.1
		c3.5,4.5,7.3,9.3,12,12.7c8.8,8.8,17.4,13.2,25.6,13.2c0.8,0,1.7,0,2.5-0.1c11.3-1.3,17.3-10.7,17.5-11.1
		C198.4,103.8,198.1,102.4,197.1,101.8z M108.8,71.7c-0.2,0-0.3,0-0.5,0c0,0,0,0,0,0c-10,0.4-17.8,1.8-23.9,3.6V47
		c0-0.8-0.4-1.6-1.2-1.9c-0.7-0.4-1.6-0.3-2.3,0.1l-6.4,4.3l0.3-5.1l41.2-28l41.2,27.9v5.3l-6.6-4.5c-0.7-0.5-1.5-0.5-2.3-0.1
		c-0.7,0.4-1.2,1.1-1.2,1.9v28.3c-6.1-1.8-13.9-3.2-24-3.6c0,0,0,0,0,0c-0.2,0-0.3,0-0.5,0c-2.2-0.1-4.6-0.1-7-0.1
		C113.3,71.5,111,71.6,108.8,71.7z"/>
	<path id="XMLID_312_" class="st0" d="M124.3,43.5h-5.5h-0.3c-0.5,0-0.9,0.4-0.9,0.9v5.9c0,0.5,0.4,0.9,0.9,0.9h5.9
		c0.5,0,0.9-0.4,0.9-0.9v-0.5v-5.4C125.1,43.9,124.8,43.5,124.3,43.5z"/>
	<path id="XMLID_313_" class="st0" d="M114.1,43.6c-0.1,0-0.2-0.1-0.3-0.1h-5.9c-0.5,0-0.9,0.4-0.9,0.9v4.4v1.5
		c0,0.5,0.4,0.9,0.9,0.9h5.9c0.5,0,0.9-0.4,0.9-0.9v-5.9C114.6,44,114.4,43.7,114.1,43.6z"/>
	<path id="XMLID_314_" class="st0" d="M113.9,54c0,0-0.1,0-0.1,0h-5.9c-0.5,0-0.9,0.4-0.9,0.9v5.9c0,0.5,0.4,0.9,0.9,0.9h4.9h1
		c0.5,0,0.9-0.4,0.9-0.9v-5.9C114.6,54.4,114.3,54.1,113.9,54z"/>
	<path id="XMLID_315_" class="st0" d="M124.3,54h-1.5h-4.4c-0.1,0-0.1,0-0.1,0c-0.4,0.1-0.7,0.4-0.7,0.9v5.9c0,0.3,0.2,0.6,0.4,0.8
		c0.1,0.1,0.3,0.1,0.4,0.1h5.9c0.5,0,0.9-0.4,0.9-0.9v-5.9c0-0.1,0-0.2-0.1-0.3C125,54.3,124.7,54,124.3,54z"/>
	<path id="XMLID_316_" class="st0" d="M138.6,42.2v23.4c0,1.2,1,2.2,2.2,2.2s2.2-1,2.2-2.2V41.1c0-0.7-0.4-1.4-1-1.8l-24.7-16.7
		c-0.7-0.5-1.7-0.5-2.5,0L90.2,39.3c-0.6,0.4-1,1.1-1,1.8v25.6c0,1.2,1,2.2,2.2,2.2c1.2,0,2.2-1,2.2-2.2V42.2L116.1,27L138.6,42.2z"
		/>
</g>
</svg>
