<?xml version="1.0" encoding="utf-8"?>
<!-- Generator: Adobe Illustrator 27.2.0, SVG Export Plug-In . SVG Version: 6.00 Build 0)  -->
<svg version="1.1" id="Layer_1" xmlns="http://www.w3.org/2000/svg" xmlns:xlink="http://www.w3.org/1999/xlink" x="0px" y="0px"
	 viewBox="0 0 200 200" style="enable-background:new 0 0 200 200;" xml:space="preserve">
<style type="text/css">
	.st0{fill:#FFFFFF;}
</style>
<g id="XMLID_96_">
	<path id="XMLID_311_" class="st0" d="M181.3,128.1c-1-0.6-2.4-0.3-3,0.7c-0.1,0.1-5.1,8-14.3,9.1c-4.7,0.5-9.7-0.8-14.9-4
		c0.5,0,1,0,1.5,0c3.1,0,6.5-0.6,10.4-1.8c1.2-0.4,1.8-1.6,1.4-2.8c-0.4-1.2-1.6-1.8-2.8-1.4c-16.3,5.4-23.8-4.1-31.7-14.1
		c-2.9-3.7-5.9-7.5-9.4-10.4c28.6,3.9,29.6,16.6,29.6,16.7c0,1.2,1,2.2,2.2,2.2c0,0,0,0,0,0c1.2,0,2.2-1,2.2-2.2
		c0-0.4-0.2-4.2-4-8.6c2,0.2,3.8,0.3,5.7,0.3c9.7,0,17.4-2.6,21.7-5.9c2.5-2,3.8-4.2,3.8-6.5c0-1.2-1-2.2-2.2-2.2
		c-1.2,0-2.2,1-2.2,2.2c0,0.9-0.8,2-2.2,3.1c-5.2,4.1-17.3,6.9-31.8,3.4c-1.6-0.9-3.3-1.7-5.4-2.5V77.4l6.6,4.5
		c0.7,0.5,1.5,0.5,2.3,0.1c0.7-0.4,1.2-1.1,1.2-1.9V69.5c0-0.7-0.4-1.4-1-1.8l-43.4-29.4c0,0,0,0,0,0c-0.1-0.1-0.2-0.1-0.3-0.1
		c0,0-0.1-0.1-0.1-0.1c-0.1,0-0.1,0-0.2-0.1c-0.1,0-0.1,0-0.2-0.1c-0.1,0-0.1,0-0.2,0c-0.1,0-0.2,0-0.3,0c-0.1,0-0.1,0-0.2,0
		c-0.1,0-0.1,0-0.2,0c-0.1,0-0.1,0-0.2,0.1c-0.1,0-0.2,0-0.2,0.1c0,0-0.1,0-0.1,0.1c-0.1,0-0.2,0.1-0.3,0.1c0,0,0,0,0,0L55.7,67.7
		c-0.6,0.4-0.9,1-1,1.7L54.2,80c0,0.8,0.4,1.6,1.1,2c0.7,0.4,1.6,0.4,2.3-0.1l6.6-4.5v25.7c-2.1,0.8-3.9,1.7-5.4,2.6
		c-14.4,3.4-26.5,0.6-31.7-3.5c-1.4-1.1-2.2-2.2-2.2-3.1c0-1.2-1-2.2-2.2-2.2c-1.2,0-2.2,1-2.2,2.2c0,2.3,1.3,4.5,3.8,6.5
		c4.3,3.4,12,5.9,21.7,5.9c1.8,0,3.7-0.1,5.6-0.3c-3.8,4.4-4,8.3-4,8.6c0,1.2,0.9,2.2,2.2,2.2c0,0,0,0,0,0c1.2,0,2.2-1,2.2-2.2
		c0-0.2,1.1-12.8,29.6-16.7c-3.5,3-6.4,6.7-9.3,10.4c-7.9,10.1-15.4,19.6-31.7,14.1c-1.1-0.4-2.4,0.2-2.8,1.4
		c-0.4,1.2,0.2,2.4,1.4,2.8c3.8,1.3,7.3,1.8,10.4,1.8c0.5,0,1,0,1.5,0c-5.2,3.2-10.2,4.5-14.9,4c-9.2-1-14.3-9-14.4-9.1
		c-0.6-1-2-1.3-3-0.7c-1,0.6-1.3,2-0.7,3c0.3,0.4,6.3,9.8,17.5,11.1c0.8,0.1,1.7,0.1,2.5,0.1c8.2,0,16.8-4.4,25.6-13.2
		c4.7-3.4,8.5-8.2,12-12.7c5.2-6.6,10.2-12.9,17.3-14.1c1.5-0.1,3.1-0.1,4.8-0.1v8.1c0,23.5-27.2,27.3-28.3,27.4
		c-0.5,0-12,1.3-26.3,15.6c-0.9,0.9-0.9,2.2,0,3.1c0.4,0.4,1,0.6,1.6,0.6c0.6,0,1.1-0.2,1.6-0.6c13.1-13.1,23.5-14.3,23.7-14.3
		c0.2,0,14.5-2,23.9-11.4c-6.1,15-17.5,26.1-24.5,27c-1.2,0.2-2.1,1.3-1.9,2.5c0.1,1.1,1.1,1.9,2.2,1.9c0.1,0,0.2,0,0.3,0
		c10.3-1.3,24.4-16.6,30-35.4c5.6,18.8,19.7,34.1,30,35.4c0.1,0,0.2,0,0.3,0c1.1,0,2-0.8,2.2-1.9c0.2-1.2-0.7-2.3-1.9-2.5
		c-7-0.9-18.4-12-24.5-27c9.5,9.4,23.7,11.4,24,11.4c0.1,0,10.4,1.1,23.6,14.3c0.4,0.4,1,0.6,1.6,0.6c0.6,0,1.1-0.2,1.6-0.6
		c0.9-0.9,0.9-2.2,0-3.1c-14.3-14.3-25.8-15.6-26.2-15.6c-0.3,0-28.3-3.9-28.3-27.4v-8.1c1.7,0,3.3,0.1,4.8,0.1
		c7.1,1.2,12.1,7.5,17.3,14.1c3.5,4.5,7.3,9.3,12,12.7c8.8,8.8,17.4,13.2,25.6,13.2c0.8,0,1.7,0,2.5-0.1
		c11.3-1.3,17.3-10.7,17.5-11.1C182.6,130.1,182.3,128.8,181.3,128.1z M93,98c-0.2,0-0.3,0-0.5,0c0,0,0,0,0,0
		c-10,0.4-17.8,1.8-23.9,3.6V73.3c0-0.8-0.4-1.6-1.2-1.9c-0.7-0.4-1.6-0.3-2.3,0.1l-6.4,4.3l0.3-5.1l41.2-28l41.2,27.9V76l-6.6-4.5
		c-0.7-0.5-1.5-0.5-2.3-0.1c-0.7,0.4-1.2,1.1-1.2,1.9v28.3c-6.1-1.8-13.9-3.2-24-3.6c0,0,0,0,0,0c-0.2,0-0.3,0-0.5,0
		c-2.2-0.1-4.6-0.1-7-0.1C97.6,97.9,95.2,97.9,93,98z"/>
	<path id="XMLID_312_" class="st0" d="M108.5,69.8H103h-0.3c-0.5,0-0.9,0.4-0.9,0.9v5.9c0,0.5,0.4,0.9,0.9,0.9h5.9
		c0.5,0,0.9-0.4,0.9-0.9v-0.5v-5.4C109.4,70.2,109,69.8,108.5,69.8z"/>
	<path id="XMLID_313_" class="st0" d="M98.3,69.9c-0.1,0-0.2-0.1-0.3-0.1h-5.9c-0.5,0-0.9,0.4-0.9,0.9v4.4v1.5
		c0,0.5,0.4,0.9,0.9,0.9H98c0.5,0,0.9-0.4,0.9-0.9v-5.9C98.9,70.3,98.6,70,98.3,69.9z"/>
	<path id="XMLID_314_" class="st0" d="M98.1,80.4c0,0-0.1,0-0.1,0h-5.9c-0.5,0-0.9,0.4-0.9,0.9v5.9c0,0.5,0.4,0.9,0.9,0.9H97h1
		c0.5,0,0.9-0.4,0.9-0.9v-5.9C98.9,80.8,98.5,80.4,98.1,80.4z"/>
	<path id="XMLID_315_" class="st0" d="M108.5,80.4H107h-4.4c-0.1,0-0.1,0-0.1,0c-0.4,0.1-0.7,0.4-0.7,0.9v5.9c0,0.3,0.2,0.6,0.4,0.8
		c0.1,0.1,0.3,0.1,0.4,0.1h5.9c0.5,0,0.9-0.4,0.9-0.9v-5.9c0-0.1,0-0.2-0.1-0.3C109.2,80.6,108.9,80.4,108.5,80.4z"/>
	<path id="XMLID_316_" class="st0" d="M122.8,68.6v23.4c0,1.2,1,2.2,2.2,2.2c1.2,0,2.2-1,2.2-2.2V67.4c0-0.7-0.4-1.4-1-1.8
		l-24.7-16.7c-0.7-0.5-1.7-0.5-2.5,0L74.4,65.6c-0.6,0.4-1,1.1-1,1.8V93c0,1.2,1,2.2,2.2,2.2s2.2-1,2.2-2.2V68.6l22.5-15.3
		L122.8,68.6z"/>
</g>
</svg>
